<svg width="16" height="17" viewBox="0 0 16 17" fill="none" xmlns="http://www.w3.org/2000/svg">
<path fill-rule="evenodd" clip-rule="evenodd" d="M8 15.6111C11.9274 15.6111 15.1111 12.4274 15.1111 8.5C15.1111 4.57264 11.9274 1.38889 8 1.38889C4.07264 1.38889 0.888889 4.57264 0.888889 8.5C0.888889 12.4274 4.07264 15.6111 8 15.6111ZM8 16.5C12.4183 16.5 16 12.9183 16 8.5C16 4.08172 12.4183 0.5 8 0.5C3.58172 0.5 0 4.08172 0 8.5C0 12.9183 3.58172 16.5 8 16.5Z" fill="white"/>
<path d="M8.00008 3.16669C8.36827 3.16669 8.66675 3.46516 8.66675 3.83335V7.83336H12.6667C13.0349 7.83336 13.3334 8.13183 13.3334 8.50002C13.3334 8.86821 13.0349 9.16669 12.6667 9.16669H8.66675V13.1667C8.66675 13.5349 8.36827 13.8334 8.00008 13.8334C7.63189 13.8334 7.33341 13.5349 7.33341 13.1667V9.16669H3.33341C2.96522 9.16669 2.66675 8.86821 2.66675 8.50002C2.66675 8.13183 2.96522 7.83336 3.33341 7.83336H7.33341V3.83335C7.33341 3.46516 7.63189 3.16669 8.00008 3.16669Z" fill="white"/>
</svg>
