
<svg width="18" height="18" viewBox="0 0 18 18" fill="none" xmlns="http://www.w3.org/2000/svg">
<path d="M10.2216 15.3539L9.81499 16.0408C9.45261 16.653 8.54735 16.653 8.18498 16.0408L7.7784 15.3539C7.46305 14.8211 7.30537 14.5547 7.05209 14.4074C6.79882 14.2601 6.47994 14.2546 5.84218 14.2436C4.90066 14.2274 4.31017 14.1697 3.81494 13.9645C2.89608 13.5839 2.16605 12.8539 1.78545 11.9351C1.5 11.2459 1.5 10.3723 1.5 8.625V7.875C1.5 5.41993 1.5 4.19239 2.0526 3.29063C2.36181 2.78605 2.78605 2.36181 3.29063 2.0526C4.19239 1.5 5.41993 1.5 7.875 1.5H10.125C12.5801 1.5 13.8076 1.5 14.7094 2.0526C15.214 2.36181 15.6382 2.78605 15.9474 3.29063C16.5 4.19239 16.5 5.41993 16.5 7.875V8.625C16.5 10.3723 16.5 11.2459 16.2145 11.9351C15.8339 12.8539 15.1039 13.5839 14.1851 13.9645C13.6898 14.1697 13.0993 14.2274 12.1578 14.2436C11.52 14.2546 11.2011 14.2601 10.9479 14.4074C10.6946 14.5547 10.5369 14.8211 10.2216 15.3539Z" fill="#D4D3DA"/>
</svg>
