<svg xmlns="http://www.w3.org/2000/svg" width="474" height="473" viewBox="0 0 474 473" fill="none">
<path d="M237 0C106.4 0 0.5 105.9 0.5 236.5C0.5 367.1 106.4 473 237 473C367.6 473 473.5 367.1 473.5 236.5C473.5 105.9 367.6 0 237 0ZM73.7 302.3C73.7 281.2 90.9 263.9 112.1 263.9C123.8 263.9 134.7 269.1 142 278.2C145.5 282.5 144.8 288.8 140.5 292.3C136.2 295.8 129.9 295.1 126.4 290.8C122.9 286.4 117.7 283.9 112.1 283.9C102 283.9 93.7 292.1 93.7 302.3C93.7 312.4 101.9 320.7 112.1 320.7C117.7 320.7 122.9 318.2 126.4 313.8C129.9 309.5 136.2 308.8 140.5 312.3C144.8 315.8 145.5 322.1 142 326.4C134.7 335.5 123.8 340.7 112.1 340.7C90.9 340.6 73.7 323.4 73.7 302.3ZM137.1 381.4C128.8 381.4 120.6 379 113.6 374.6C108.9 371.6 107.6 365.5 110.5 360.8C113.5 356.1 119.7 354.8 124.3 357.7C128.1 360.1 132.5 361.4 137 361.4H139.4C152.5 361.4 163.1 350.8 163.1 337.7V270.2L114.7 228.8C112.5 226.9 109.3 226.9 107.1 228.8L73.7 257.3C69.5 260.9 63.2 260.4 59.6 256.2C56 252 56.5 245.7 60.7 242.1L94.1 213.6C103.9 205.3 118 205.3 127.7 213.6L179.6 258C181.8 259.9 183.1 262.7 183.1 265.6V337.7C183.1 361.8 163.5 381.4 139.4 381.4H137.1ZM119 170.1C119 161.8 125.7 155 134.1 155C142.5 155 149.2 161.7 149.2 170.1C149.2 178.5 142.5 185.2 134.1 185.2C125.7 185.2 119 178.4 119 170.1ZM225.5 367.5C225.5 391.6 205.9 411.2 181.8 411.2H176.5C171 411.2 166.5 406.7 166.5 401.2C166.5 395.7 171 391.2 176.5 391.2H181.8C194.9 391.2 205.5 380.6 205.5 367.5V341.6C205.5 336.1 210 331.6 215.5 331.6C221 331.6 225.5 336.1 225.5 341.6V367.5ZM225.5 298.3C225.5 303.8 221 308.3 215.5 308.3C210 308.3 205.5 303.8 205.5 298.3V244.6L163.5 208.5C159.3 204.9 158.8 198.6 162.4 194.4C166 190.2 172.3 189.7 176.5 193.3L222 232.3C224.2 234.2 225.5 237 225.5 239.9V298.3ZM159.1 142.5C159.1 134.2 165.8 127.4 174.2 127.4C182.5 127.4 189.3 134.1 189.3 142.5C189.3 150.9 182.6 157.6 174.2 157.6C165.9 157.6 159.1 150.8 159.1 142.5ZM225.5 177.3C225.5 182.8 221 187.3 215.5 187.3C210 187.3 205.5 182.8 205.5 177.3V113.4C205.5 96 191.4 81.9 174 81.9C156.6 81.9 142.5 96 142.5 113.4V123C142.5 128.5 138 133 132.5 133H122.1C108.2 133 96.8 144.3 96.8 158.3V168.7C96.8 171.4 95.7 173.9 93.9 175.8L67 202.7C65 204.7 62.5 205.6 59.9 205.6C57.3 205.6 54.8 204.6 52.8 202.7C48.9 198.8 48.9 192.5 52.8 188.6L76.8 164.6V158.3C76.8 133.3 97.1 113 122.1 113H122.5C122.7 84.8 145.7 61.9 174 61.9C202.4 61.9 225.5 85 225.5 113.4V177.3ZM297.5 411.2H292.2C268.1 411.2 248.5 391.6 248.5 367.5V298.4V271.5V240.1C248.5 237.2 249.8 234.4 252 232.5L297.5 193.5C301.7 189.9 308 190.4 311.6 194.6C315.2 198.8 314.7 205.1 310.5 208.7L268.5 244.8V271.6V298.5V367.5C268.5 380.6 279.1 391.2 292.2 391.2H297.5C303 391.2 307.5 395.7 307.5 401.2C307.5 406.7 303.1 411.2 297.5 411.2ZM284.8 142.5C284.8 134.2 291.5 127.4 299.9 127.4C308.2 127.4 315 134.1 315 142.5C315 150.9 308.3 157.6 299.9 157.6C291.5 157.6 284.8 150.8 284.8 142.5ZM360.4 374.5C353.4 379 345.3 381.3 336.9 381.3H334.5C310.4 381.3 290.8 361.7 290.8 337.6V327.9C290.8 322.4 295.3 317.9 300.8 317.9C306.3 317.9 310.8 322.4 310.8 327.9V337.6C310.8 350.7 321.4 361.3 334.5 361.3H336.9C341.4 361.3 345.8 360 349.6 357.6C354.3 354.6 360.4 356 363.4 360.7C366.4 365.4 365 371.6 360.4 374.5ZM362 340.6C350.3 340.6 339.4 335.4 332.1 326.3C328.6 322 329.3 315.7 333.6 312.2C337.9 308.7 344.2 309.4 347.7 313.7C351.2 318.1 356.4 320.6 362 320.6C372.1 320.6 380.4 312.4 380.4 302.2C380.4 292.1 372.2 283.8 362 283.8C356.4 283.8 351.2 286.3 347.7 290.7C344.2 295 337.9 295.7 333.6 292.2C329.3 288.7 328.6 282.4 332.1 278.1C339.4 269 350.3 263.8 362 263.8C383.1 263.8 400.4 281 400.4 302.2C400.4 323.4 383.1 340.6 362 340.6ZM414.3 256.1C410.7 260.3 404.4 260.8 400.2 257.2L366.8 228.7C364.6 226.8 361.4 226.8 359.2 228.7L310.8 270.1V292.5C310.8 298 306.3 302.5 300.8 302.5C295.3 302.5 290.8 298 290.8 292.5V265.6C290.8 262.7 292.1 259.9 294.3 258L346.2 213.6C355.9 205.3 370.1 205.3 379.8 213.6L413.2 242.1C417.4 245.6 417.9 251.9 414.3 256.1ZM324.9 170.1C324.9 161.8 331.6 155 340 155C348.4 155 355.1 161.7 355.1 170.1C355.1 178.5 348.4 185.2 340 185.2C331.6 185.2 324.9 178.4 324.9 170.1ZM414.2 205.6C411.6 205.6 409.1 204.6 407.1 202.7L380.2 175.8C378.3 173.9 377.3 171.4 377.3 168.7V158.3C377.3 144.4 366 133 352 133H341.6C336.1 133 331.6 128.5 331.6 123V113.4C331.6 96 317.5 81.9 300.1 81.9C282.7 81.9 268.6 96 268.6 113.4V177.3C268.6 182.8 264.1 187.3 258.6 187.3C253.1 187.3 248.6 182.8 248.6 177.3V113.4C248.6 85 271.7 61.9 300.1 61.9C328.4 61.9 351.4 84.8 351.6 113H352C377 113 397.3 133.3 397.3 158.3V164.6L421.3 188.6C425.2 192.5 425.2 198.8 421.3 202.7C419.3 204.6 416.8 205.6 414.2 205.6Z" fill="url(#paint0_linear_133_7806)"/>
<defs>
<linearGradient id="paint0_linear_133_7806" x1="237.018" y1="473.001" x2="237.018" y2="0.0359152" gradientUnits="userSpaceOnUse">
<stop stop-color="#C3271B"/>
<stop offset="0.8287" stop-color="#FABE75"/>
</linearGradient>
</defs>
</svg>