
<svg width="127" height="42" viewBox="0 0 127 42" fill="none" xmlns="http://www.w3.org/2000/svg">
<path d="M116.107 19.285L111.781 12.733H111.34L105.523 4.58502H108.379L112.726 10.759H113.167L118.921 19.285H116.107ZM105.271 19.285L110.857 11.431L112.516 12.838L107.98 19.285H105.271ZM113.335 12.25L111.676 10.843L115.96 4.58502H118.669L113.335 12.25Z" fill="white"/>
<path d="M101.357 19.285V9.20502H103.667V19.285H101.357ZM102.512 7.35702C102.12 7.35702 101.791 7.22402 101.525 6.95802C101.273 6.69202 101.147 6.36302 101.147 5.97102C101.147 5.57902 101.273 5.25002 101.525 4.98402C101.791 4.71802 102.12 4.58502 102.512 4.58502C102.918 4.58502 103.247 4.71802 103.499 4.98402C103.751 5.25002 103.877 5.57902 103.877 5.97102C103.877 6.36302 103.751 6.69202 103.499 6.95802C103.247 7.22402 102.918 7.35702 102.512 7.35702Z" fill="white"/>
<path d="M96.8884 19.285V13.468C96.8884 12.796 96.6714 12.243 96.2374 11.809C95.8174 11.375 95.2714 11.158 94.5994 11.158C94.1514 11.158 93.7524 11.256 93.4024 11.452C93.0524 11.648 92.7794 11.921 92.5834 12.271C92.3874 12.621 92.2894 13.02 92.2894 13.468L91.3864 12.964C91.3864 12.194 91.5544 11.515 91.8904 10.927C92.2264 10.325 92.6884 9.85603 93.2764 9.52003C93.8784 9.17003 94.5504 8.99503 95.2924 8.99503C96.0484 8.99503 96.7204 9.19103 97.3084 9.58303C97.8964 9.96103 98.3584 10.458 98.6944 11.074C99.0304 11.676 99.1984 12.306 99.1984 12.964V19.285H96.8884ZM89.9794 19.285V9.20503H92.2894V19.285H89.9794Z" fill="white"/>
<path d="M82.3104 23.695C81.2464 23.695 80.3153 23.499 79.5173 23.107C78.7193 22.729 78.0754 22.19 77.5854 21.49L79.0974 19.978C79.5034 20.482 79.9654 20.86 80.4834 21.112C81.0013 21.364 81.6244 21.49 82.3524 21.49C83.2624 21.49 83.9834 21.252 84.5154 20.776C85.0474 20.314 85.3134 19.677 85.3134 18.865V16.387L85.7124 14.161L85.3134 11.914V9.20503H87.6234V18.865C87.6234 19.831 87.3994 20.671 86.9514 21.385C86.5034 22.113 85.8804 22.68 85.0824 23.086C84.2844 23.492 83.3604 23.695 82.3104 23.695ZM82.2054 19.075C81.3094 19.075 80.4974 18.858 79.7694 18.424C79.0554 17.976 78.4884 17.367 78.0684 16.597C77.6624 15.827 77.4594 14.966 77.4594 14.014C77.4594 13.062 77.6624 12.208 78.0684 11.452C78.4884 10.696 79.0554 10.101 79.7694 9.66703C80.4974 9.21903 81.3094 8.99503 82.2054 8.99503C83.0034 8.99503 83.7034 9.15603 84.3054 9.47803C84.9074 9.80003 85.3764 10.248 85.7124 10.822C86.0484 11.382 86.2164 12.04 86.2164 12.796V15.274C86.2164 16.016 86.0414 16.674 85.6914 17.248C85.3554 17.822 84.8864 18.27 84.2844 18.592C83.6824 18.914 82.9894 19.075 82.2054 19.075ZM82.6674 16.891C83.2274 16.891 83.7174 16.772 84.1374 16.534C84.5574 16.296 84.8794 15.967 85.1034 15.547C85.3414 15.113 85.4604 14.609 85.4604 14.035C85.4604 13.461 85.3414 12.964 85.1034 12.544C84.8794 12.11 84.5574 11.774 84.1374 11.536C83.7174 11.298 83.2274 11.179 82.6674 11.179C82.1074 11.179 81.6103 11.298 81.1763 11.536C80.7563 11.774 80.4274 12.11 80.1894 12.544C79.9514 12.964 79.8324 13.461 79.8324 14.035C79.8324 14.595 79.9514 15.092 80.1894 15.526C80.4274 15.96 80.7563 16.296 81.1763 16.534C81.6103 16.772 82.1074 16.891 82.6674 16.891Z" fill="white"/>
<path d="M71.1074 19.495C70.1274 19.495 69.2384 19.264 68.4404 18.802C67.6424 18.326 67.0054 17.689 66.5294 16.891C66.0674 16.093 65.8364 15.204 65.8364 14.224C65.8364 13.244 66.0674 12.362 66.5294 11.578C67.0054 10.794 67.6424 10.171 68.4404 9.70903C69.2384 9.23303 70.1274 8.99503 71.1074 8.99503C72.1014 8.99503 72.9974 9.22603 73.7954 9.68803C74.5934 10.15 75.2234 10.78 75.6854 11.578C76.1614 12.362 76.3994 13.244 76.3994 14.224C76.3994 15.204 76.1614 16.093 75.6854 16.891C75.2234 17.689 74.5934 18.326 73.7954 18.802C72.9974 19.264 72.1014 19.495 71.1074 19.495ZM71.1074 17.269C71.6814 17.269 72.1854 17.143 72.6194 16.891C73.0674 16.625 73.4104 16.261 73.6484 15.799C73.9004 15.337 74.0264 14.812 74.0264 14.224C74.0264 13.636 73.9004 13.118 73.6484 12.67C73.3964 12.222 73.0534 11.872 72.6194 11.62C72.1854 11.354 71.6814 11.221 71.1074 11.221C70.5474 11.221 70.0434 11.354 69.5954 11.62C69.1614 11.872 68.8184 12.222 68.5664 12.67C68.3284 13.118 68.2094 13.636 68.2094 14.224C68.2094 14.812 68.3284 15.337 68.5664 15.799C68.8184 16.261 69.1614 16.625 69.5954 16.891C70.0434 17.143 70.5474 17.269 71.1074 17.269Z" fill="white"/>
<path d="M59.663 19.495C58.599 19.495 57.612 19.306 56.702 18.928C55.806 18.536 55.022 17.997 54.35 17.311C53.678 16.611 53.16 15.806 52.796 14.896C52.432 13.972 52.25 12.985 52.25 11.935C52.25 10.885 52.432 9.90503 52.796 8.99503C53.16 8.07103 53.678 7.26603 54.35 6.58003C55.022 5.89403 55.806 5.35503 56.702 4.96303C57.612 4.57103 58.599 4.37503 59.663 4.37503C60.853 4.37503 61.882 4.57103 62.75 4.96303C63.618 5.35503 64.388 5.88703 65.06 6.55903L63.422 8.19703C62.988 7.72103 62.456 7.35003 61.826 7.08403C61.21 6.81803 60.489 6.68503 59.663 6.68503C58.935 6.68503 58.27 6.81103 57.668 7.06303C57.066 7.31503 56.541 7.67903 56.093 8.15503C55.659 8.61703 55.323 9.17003 55.085 9.81403C54.847 10.458 54.728 11.165 54.728 11.935C54.728 12.705 54.847 13.412 55.085 14.056C55.323 14.7 55.659 15.26 56.093 15.736C56.541 16.198 57.066 16.555 57.668 16.807C58.27 17.059 58.935 17.185 59.663 17.185C60.559 17.185 61.315 17.052 61.931 16.786C62.561 16.506 63.093 16.128 63.527 15.652L65.165 17.29C64.493 17.976 63.702 18.515 62.792 18.907C61.882 19.299 60.839 19.495 59.663 19.495Z" fill="white"/>
<path d="M55.715 35.3375C55.2892 35.3375 54.8896 35.2588 54.5163 35.1012C54.1488 34.9379 53.825 34.7133 53.545 34.4275C53.2708 34.1417 53.055 33.8092 52.8975 33.43C52.74 33.0508 52.6613 32.6425 52.6613 32.205C52.6613 31.7675 52.74 31.3621 52.8975 30.9887C53.055 30.6096 53.2738 30.2771 53.5538 29.9912C53.8338 29.7054 54.1604 29.4837 54.5338 29.3262C54.9129 29.1687 55.3242 29.09 55.7675 29.09C56.2517 29.09 56.6979 29.1833 57.1063 29.37C57.5146 29.5567 57.8558 29.825 58.13 30.175L57.5613 30.7437C57.3688 30.4637 57.115 30.2508 56.8 30.105C56.485 29.9533 56.1408 29.8775 55.7675 29.8775C55.3242 29.8775 54.9304 29.9767 54.5863 30.175C54.2479 30.3733 53.9825 30.6475 53.79 30.9975C53.6033 31.3475 53.51 31.75 53.51 32.205C53.51 32.6658 53.6063 33.0712 53.7988 33.4212C53.9913 33.7712 54.2508 34.0454 54.5775 34.2437C54.9042 34.4421 55.2775 34.5412 55.6975 34.5412C56.1233 34.5412 56.4908 34.4596 56.8 34.2962C57.115 34.1329 57.3571 33.8937 57.5263 33.5787C57.6954 33.2579 57.78 32.8671 57.78 32.4062L58.2788 32.765H55.6538V32.0125H58.6288V32.135C58.6288 32.8408 58.5033 33.4329 58.2525 33.9112C58.0075 34.3837 57.6633 34.7396 57.22 34.9787C56.7825 35.2179 56.2808 35.3375 55.715 35.3375ZM59.4726 35.25V29.1775H60.2951V35.25H59.4726ZM60.0326 35.25V34.4975H63.5151V35.25H60.0326ZM60.0326 32.5025V31.785H63.2263V32.5025H60.0326ZM60.0326 29.93V29.1775H63.4713V29.93H60.0326ZM64.3712 35.25V29.1775H64.9487L65.1937 30.1312V35.25H64.3712ZM68.5712 35.25L64.8437 30.2712L64.9487 29.1775L68.685 34.1475L68.5712 35.25ZM68.5712 35.25L68.3262 34.3487V29.1775H69.1487V35.25H68.5712ZM70.3209 35.25V29.1775H71.1434V35.25H70.3209ZM70.8809 35.25V34.4975H74.3634V35.25H70.8809ZM70.8809 32.5025V31.785H74.0746V32.5025H70.8809ZM70.8809 29.93V29.1775H74.3196V29.93H70.8809ZM75.7708 32.6075V31.9162H77.4158C77.7716 31.9162 78.0458 31.8258 78.2383 31.645C78.4308 31.4642 78.527 31.2192 78.527 30.91C78.527 30.6183 78.4308 30.3762 78.2383 30.1837C78.0516 29.9912 77.7803 29.895 77.4245 29.895H75.7708V29.1775H77.4508C77.8358 29.1775 78.1712 29.2533 78.457 29.405C78.7428 29.5508 78.9616 29.7521 79.1133 30.0087C79.2708 30.2654 79.3495 30.56 79.3495 30.8925C79.3495 31.2367 79.2708 31.5371 79.1133 31.7937C78.9616 32.0504 78.7428 32.2517 78.457 32.3975C78.1712 32.5375 77.8358 32.6075 77.4508 32.6075H75.7708ZM75.2195 35.25V29.1775H76.042V35.25H75.2195ZM78.7195 35.25L76.5145 32.5287L77.2933 32.2575L79.7608 35.25H78.7195ZM79.7061 35.25L82.1911 29.1775H82.7861L85.2623 35.25H84.3698L82.3311 30.1137H82.6373L80.5811 35.25H79.7061ZM80.8873 33.8762V33.1587H84.0811V33.8762H80.8873ZM86.7037 35.25V29.3525H87.5262V35.25H86.7037ZM84.6387 29.93V29.1775H89.5824V29.93H84.6387ZM90.2999 35.25V29.1775H91.1224V35.25H90.2999ZM94.2795 35.25L91.847 29.1775H92.7395L94.7433 34.3137H94.4195L96.4408 29.1775H97.3245L94.8745 35.25H94.2795ZM98.055 35.25V29.1775H98.8775V35.25H98.055ZM98.615 35.25V34.4975H102.097V35.25H98.615ZM98.615 32.5025V31.785H101.809V32.5025H98.615ZM98.615 29.93V29.1775H102.054V29.93H98.615ZM104.511 35.25V29.1775H105.089L107.661 33.4037H107.267L109.84 29.1775H110.417V35.25H109.595V30.6212L109.787 30.6737L107.757 34.0075H107.18L105.15 30.6737L105.334 30.6212V35.25H104.511ZM111.589 35.25V29.1775H112.411V35.25H111.589ZM113.582 35.25V29.1775H114.16L114.405 30.1312V35.25H113.582ZM117.782 35.25L114.055 30.2712L114.16 29.1775L117.896 34.1475L117.782 35.25ZM117.782 35.25L117.537 34.3487V29.1775H118.36V35.25H117.782ZM120.074 35.25V34.4975H121.763C122.212 34.4975 122.606 34.4012 122.944 34.2087C123.283 34.0104 123.545 33.7392 123.732 33.395C123.924 33.0508 124.021 32.6542 124.021 32.205C124.021 31.7617 123.924 31.3679 123.732 31.0237C123.539 30.6796 123.274 30.4112 122.936 30.2187C122.597 30.0262 122.206 29.93 121.763 29.93H120.083V29.1775H121.781C122.224 29.1775 122.632 29.2533 123.006 29.405C123.385 29.5567 123.711 29.7696 123.986 30.0437C124.266 30.3179 124.481 30.6387 124.633 31.0062C124.791 31.3737 124.869 31.7762 124.869 32.2137C124.869 32.6454 124.791 33.0479 124.633 33.4212C124.481 33.7887 124.268 34.1096 123.994 34.3837C123.72 34.6579 123.393 34.8708 123.014 35.0225C122.641 35.1742 122.236 35.25 121.798 35.25H120.074ZM119.532 35.25V29.1775H120.354V35.25H119.532Z" fill="#9299A3"/>
<g clip-path="url(#clip0_194_5964)">
<path d="M21 0C9.40338 0 0 9.40338 0 21C0 32.5966 9.40338 42 21 42C32.5966 42 42 32.5966 42 21C42 9.40338 32.5966 0 21 0ZM6.49979 26.8338C6.49979 24.9603 8.02706 23.4241 9.90951 23.4241C10.9484 23.4241 11.9163 23.8858 12.5645 24.6939C12.8753 25.0757 12.8131 25.6351 12.4313 25.9459C12.0495 26.2567 11.4901 26.1945 11.1793 25.8127C10.8685 25.422 10.4068 25.2 9.90951 25.2C9.01268 25.2 8.27569 25.9281 8.27569 26.8338C8.27569 27.7307 9.00381 28.4677 9.90951 28.4677C10.4068 28.4677 10.8685 28.2457 11.1793 27.855C11.4901 27.4732 12.0495 27.411 12.4313 27.7218C12.8131 28.0326 12.8753 28.592 12.5645 28.9738C11.9163 29.7818 10.9484 30.2436 9.90951 30.2436C8.02706 30.2436 6.49979 28.7163 6.49979 26.8338ZM12.1294 33.8575C11.3924 33.8575 10.6643 33.6444 10.0427 33.2537C9.62537 32.9873 9.50994 32.4457 9.76744 32.0283C10.0338 31.611 10.5844 31.4956 10.9928 31.7531C11.3302 31.9662 11.7209 32.0816 12.1205 32.0816H12.3336C13.4968 32.0816 14.4381 31.1404 14.4381 29.9772V23.9835L10.1404 20.3074C9.94503 20.1387 9.66089 20.1387 9.46554 20.3074L6.49979 22.8381C6.12685 23.1577 5.56744 23.1133 5.24778 22.7404C4.92812 22.3674 4.97252 21.808 5.34545 21.4884L8.3112 18.9577C9.1814 18.2207 10.4334 18.2207 11.2947 18.9577L15.9032 22.9002C16.0985 23.0689 16.214 23.3175 16.214 23.5751V29.9772C16.214 32.1171 14.4736 33.8575 12.3336 33.8575H12.1294ZM10.5222 15.104C10.5222 14.367 11.1171 13.7632 11.863 13.7632C12.6089 13.7632 13.2038 14.3581 13.2038 15.104C13.2038 15.8499 12.6089 16.4448 11.863 16.4448C11.1171 16.4448 10.5222 15.841 10.5222 15.104ZM19.97 32.6233C19.97 34.7632 18.2296 36.5036 16.0896 36.5036H15.6279C15.1395 36.5036 14.74 36.104 14.74 35.6156C14.74 35.1273 15.1395 34.7277 15.6279 34.7277H16.0985C17.2617 34.7277 18.203 33.7865 18.203 32.6233V30.3235C18.203 29.8351 18.6025 29.4355 19.0909 29.4355C19.5793 29.4355 19.9789 29.8351 19.9789 30.3235V32.6233H19.97ZM19.97 26.4875C19.97 26.9759 19.5704 27.3755 19.082 27.3755C18.5937 27.3755 18.1941 26.9759 18.1941 26.4875V21.7192L14.4647 18.5137C14.0918 18.1941 14.0474 17.6347 14.367 17.2617C14.6867 16.8888 15.2461 16.8444 15.619 17.1641L19.6592 20.6271C19.8545 20.7958 19.97 21.0444 19.97 21.3019V26.4875ZM14.0829 12.6533C14.0829 11.9163 14.6778 11.3125 15.4237 11.3125C16.1607 11.3125 16.7645 11.9074 16.7645 12.6533C16.7645 13.3992 16.1696 13.9941 15.4237 13.9941C14.6867 13.9852 14.0829 13.3903 14.0829 12.6533ZM19.97 15.7433C19.97 16.2317 19.5704 16.6313 19.082 16.6313C18.5937 16.6313 18.1941 16.2317 18.1941 15.7433V10.0693C18.1941 8.52431 16.9421 7.2723 15.397 7.2723C13.852 7.2723 12.6 8.52431 12.6 10.0693V10.9218C12.6 11.4101 12.2004 11.8097 11.7121 11.8097H10.7886C9.55433 11.8097 8.54207 12.8131 8.54207 14.0562V14.9797C8.54207 15.2194 8.4444 15.4414 8.28457 15.6101L5.89598 17.9987C5.71839 18.1763 5.49641 18.2562 5.26554 18.2562C5.03467 18.2562 4.81269 18.1674 4.6351 17.9987C4.28879 17.6524 4.28879 17.093 4.6351 16.7467L6.76617 14.6156V14.0562C6.76617 11.8364 8.56871 10.0338 10.7886 10.0338H10.8241C10.8419 7.52981 12.8841 5.49641 15.397 5.49641C17.9188 5.49641 19.97 7.54757 19.97 10.0693V15.7433ZM26.3721 36.5036H25.9015C23.7615 36.5036 22.0211 34.7632 22.0211 32.6233V26.4875V24.0989V21.3108C22.0211 21.0533 22.1366 20.8046 22.3319 20.6359L26.3721 17.1729C26.745 16.8533 27.3044 16.8977 27.6241 17.2706C27.9438 17.6436 27.8994 18.203 27.5264 18.5226L23.797 21.7281V24.1078V26.4964V32.6321C23.797 33.7953 24.7383 34.7366 25.9015 34.7366H26.3721C26.8605 34.7366 27.26 35.1362 27.26 35.6245C27.26 36.1129 26.8605 36.5036 26.3721 36.5036ZM25.2355 12.6533C25.2355 11.9163 25.8304 11.3125 26.5763 11.3125C27.3133 11.3125 27.9171 11.9074 27.9171 12.6533C27.9171 13.3992 27.3222 13.9941 26.5763 13.9941C25.8393 13.9852 25.2355 13.3903 25.2355 12.6533ZM31.9484 33.2537C31.3268 33.6533 30.6076 33.8575 29.8617 33.8575H29.6486C27.5087 33.8575 25.7683 32.1171 25.7683 29.9772V29.1159C25.7683 28.6275 26.1679 28.2279 26.6562 28.2279C27.1446 28.2279 27.5442 28.6275 27.5442 29.1159V29.9772C27.5442 31.1404 28.4854 32.0816 29.6486 32.0816H29.8617C30.2613 32.0816 30.652 31.9662 30.9894 31.7531C31.4068 31.4867 31.9484 31.611 32.2148 32.0283C32.4901 32.4457 32.3657 32.9873 31.9484 33.2537ZM32.0905 30.2436C31.0516 30.2436 30.0837 29.7818 29.4355 28.9738C29.1247 28.592 29.1869 28.0326 29.5687 27.7218C29.9505 27.411 30.5099 27.4732 30.8207 27.855C31.1315 28.2457 31.5932 28.4677 32.0905 28.4677C32.9873 28.4677 33.7243 27.7395 33.7243 26.8338C33.7243 25.937 32.9962 25.2 32.0905 25.2C31.5932 25.2 31.1315 25.422 30.8207 25.8127C30.5099 26.1945 29.9505 26.2567 29.5687 25.9459C29.1869 25.6351 29.1247 25.0757 29.4355 24.6939C30.0837 23.8858 31.0516 23.4241 32.0905 23.4241C33.9641 23.4241 35.5002 24.9514 35.5002 26.8338C35.5002 28.7163 33.9729 30.2436 32.0905 30.2436ZM36.7433 22.7404C36.4237 23.1133 35.8643 23.1577 35.4913 22.8381L32.5256 20.3074C32.3302 20.1387 32.0461 20.1387 31.8507 20.3074L27.5531 23.9835V25.9636C27.5531 26.452 27.1535 26.8516 26.6651 26.8516C26.1767 26.8516 25.7772 26.452 25.7772 25.9636V23.5751C25.7772 23.3175 25.8926 23.0689 26.0879 22.9002L30.6964 18.9577C31.5577 18.2207 32.8186 18.2207 33.6799 18.9577L36.6457 21.4884C37.0186 21.808 37.063 22.3674 36.7433 22.7404ZM28.7962 15.104C28.7962 14.367 29.3911 13.7632 30.137 13.7632C30.8829 13.7632 31.4778 14.3581 31.4778 15.104C31.4778 15.8499 30.8829 16.4448 30.137 16.4448C29.3911 16.4448 28.7962 15.841 28.7962 15.104ZM36.7345 18.2562C36.5036 18.2562 36.2816 18.1674 36.104 17.9987L33.7154 15.6101C33.5467 15.4414 33.4579 15.2194 33.4579 14.9797V14.0562C33.4579 12.822 32.4545 11.8097 31.2114 11.8097H30.2791C29.7907 11.8097 29.3911 11.4101 29.3911 10.9218V10.0693C29.3911 8.52431 28.1391 7.2723 26.5941 7.2723C25.049 7.2723 23.797 8.52431 23.797 10.0693V15.7433C23.797 16.2317 23.3975 16.6313 22.9091 16.6313C22.4207 16.6313 22.0211 16.2317 22.0211 15.7433V10.0693C22.0211 7.54757 24.0723 5.49641 26.5941 5.49641C29.107 5.49641 31.1493 7.52981 31.167 10.0338H31.2025C33.4224 10.0338 35.2249 11.8364 35.2249 14.0562V14.6156L37.356 16.7467C37.7023 17.093 37.7023 17.6524 37.356 17.9987C37.1873 18.1674 36.9564 18.2562 36.7345 18.2562Z" fill="url(#paint0_linear_194_5964)"/>
</g>
<defs>
<linearGradient id="paint0_linear_194_5964" x1="20.9984" y1="41.9969" x2="20.9984" y2="0" gradientUnits="userSpaceOnUse">
<stop stop-color="#C3271B"/>
<stop offset="0.8287" stop-color="#FABE75"/>
</linearGradient>
<clipPath id="clip0_194_5964">
<rect width="42" height="42" rx="21" fill="white"/>
</clipPath>
</defs>
</svg>
