<svg width="16" height="18" viewBox="0 0 16 18" fill="none" xmlns="http://www.w3.org/2000/svg">
<path fill-rule="evenodd" clip-rule="evenodd" d="M7.99987 7.25006C7.00101 7.25006 6.24987 8.0012 6.24987 9.00006C6.24987 9.2762 6.02601 9.50006 5.74987 9.50006C5.47372 9.50006 5.24987 9.2762 5.24987 9.00006C5.24987 7.44892 6.44872 6.25006 7.99987 6.25006C9.55101 6.25006 10.7499 7.44892 10.7499 9.00006C10.7499 9.2762 10.526 9.50006 10.2499 9.50006C9.97372 9.50006 9.74987 9.2762 9.74987 9.00006C9.74987 8.0012 8.99872 7.25006 7.99987 7.25006Z" fill="white"/>
<path fill-rule="evenodd" clip-rule="evenodd" d="M7.99987 7.25006C7.00101 7.25006 6.24987 8.0012 6.24987 9.00006C6.24987 9.2762 6.02601 9.50006 5.74987 9.50006C5.47372 9.50006 5.24987 9.2762 5.24987 9.00006C5.24987 7.44892 6.44872 6.25006 7.99987 6.25006C9.55101 6.25006 10.7499 7.44892 10.7499 9.00006C10.7499 9.2762 10.526 9.50006 10.2499 9.50006C9.97372 9.50006 9.74987 9.2762 9.74987 9.00006C9.74987 8.0012 8.99872 7.25006 7.99987 7.25006Z" fill="white"/>
<path fill-rule="evenodd" clip-rule="evenodd" d="M5.74987 8.50006C6.02601 8.50006 6.24987 8.72392 6.24987 9.00006C6.24987 9.99892 7.00101 10.7501 7.99987 10.7501C8.99872 10.7501 9.74987 9.99892 9.74987 9.00006C9.74987 8.72392 9.97372 8.50006 10.2499 8.50006C10.526 8.50006 10.7499 8.72392 10.7499 9.00006C10.7499 10.5512 9.55101 11.7501 7.99987 11.7501C6.44872 11.7501 5.24987 10.5512 5.24987 9.00006C5.24987 8.72392 5.47372 8.50006 5.74987 8.50006Z" fill="white"/>
<path fill-rule="evenodd" clip-rule="evenodd" d="M5.55958 2.00199C5.67051 1.44734 6.1354 0.925049 6.79987 0.925049H9.12487C9.78935 0.925049 10.2542 1.44734 10.3652 2.00199C10.3678 2.01511 10.3699 2.02834 10.3714 2.04163L10.5172 3.28088C10.5379 3.35199 10.5618 3.39109 10.5841 3.41895C10.607 3.44767 10.6407 3.47984 10.7002 3.52297C10.8932 3.58716 11.1818 3.69002 11.402 3.89592C11.4074 3.89686 11.4143 3.89776 11.4226 3.8984C11.4701 3.90205 11.5312 3.89474 11.5847 3.87799L12.7538 3.43956C13.0421 3.30606 13.3595 3.32204 13.6142 3.40696C13.8716 3.49274 14.1379 3.67319 14.2876 3.95792L15.4681 5.95004C15.8434 6.47914 15.7024 7.21974 15.2039 7.59704L14.1013 8.45462C14.1252 8.65344 14.125 8.84428 14.1249 8.97311C14.1249 8.98242 14.1249 8.99141 14.1249 9.00005C14.1249 9.27619 13.901 9.50005 13.6249 9.50005C13.3487 9.50005 13.1249 9.27619 13.1249 9.00005C13.1249 8.7517 13.1197 8.5407 13.0755 8.40816C13.0085 8.20705 13.0756 7.98552 13.2429 7.85537L14.5998 6.79999C14.6374 6.7718 14.6683 6.72306 14.6779 6.66269C14.6873 6.60302 14.6726 6.55531 14.6499 6.52505C14.639 6.51057 14.629 6.49552 14.6197 6.47995L13.4197 4.45495C13.4137 4.44472 13.408 4.43429 13.4027 4.42366C13.4004 4.4191 13.3726 4.38051 13.298 4.35564C13.2234 4.33077 13.178 4.34499 13.1735 4.34726C13.1578 4.35508 13.1418 4.36207 13.1254 4.36821L11.9254 4.81821C11.9197 4.82038 11.9138 4.82244 11.908 4.82439C11.7381 4.88102 11.5401 4.91039 11.3459 4.89545C11.1592 4.88109 10.9125 4.81978 10.7213 4.6286C10.671 4.5783 10.5725 4.53465 10.3168 4.44939C10.2746 4.43534 10.2345 4.41573 10.1975 4.39107C10.0658 4.30328 9.92423 4.19495 9.80319 4.04365C9.67816 3.88736 9.59264 3.70767 9.5398 3.49632C9.53463 3.47563 9.53079 3.45464 9.5283 3.43347L9.38105 2.18185C9.33792 1.99843 9.20798 1.92505 9.12487 1.92505H6.79987C6.71676 1.92505 6.58682 1.99843 6.5437 2.18184L6.39913 3.41069C6.38824 3.67086 6.26015 3.88055 6.14623 4.01979C6.02158 4.17214 5.86746 4.29758 5.72722 4.39107C5.69025 4.41573 5.65015 4.43534 5.60799 4.44939C5.55514 4.46701 5.50608 4.49442 5.40712 4.5538C5.40361 4.5559 5.40003 4.55805 5.39637 4.56025C5.3191 4.60668 5.20743 4.67378 5.07081 4.72674C4.70609 4.94492 4.33475 4.93039 4.01676 4.82439C4.01091 4.82244 4.00509 4.82038 3.99931 4.81821L2.78913 4.3644C2.63511 4.30279 2.54618 4.37546 2.52209 4.42366C2.51677 4.43429 2.51108 4.44472 2.50502 4.45495L1.3174 6.45906C1.30119 6.49881 1.2887 6.57133 1.30313 6.66269C1.31638 6.7466 1.34547 6.80373 1.36655 6.83237L2.68184 7.85537C2.80364 7.9501 2.87487 8.09575 2.87487 8.25005C2.87487 8.39522 2.85271 8.53728 2.8362 8.64308C2.83459 8.65339 2.83303 8.66336 2.83156 8.67295C2.81323 8.79206 2.79987 8.89103 2.79987 9.00005C2.79987 9.27619 2.57601 9.50005 2.29987 9.50005C2.02373 9.50005 1.79987 9.27619 1.79987 9.00005C1.79987 8.80907 1.82401 8.64554 1.84319 8.5209L1.84392 8.51611C1.84612 8.50181 1.84821 8.48826 1.85018 8.47538L0.717902 7.59472C0.701537 7.582 0.685979 7.56826 0.671319 7.5536C0.466522 7.3488 0.355619 7.07359 0.315366 6.81866C0.274908 6.56242 0.29595 6.26486 0.427659 6.00144C0.432974 5.99081 0.438667 5.98037 0.444727 5.97015L1.6369 3.95835C1.9172 3.42141 2.567 3.20145 3.15494 3.43357L4.34057 3.87819C4.40209 3.89788 4.44317 3.90096 4.47085 3.89865C4.49578 3.89657 4.52763 3.88895 4.57252 3.85902C4.6095 3.83437 4.6496 3.81476 4.69176 3.80071C4.74461 3.78309 4.79367 3.75568 4.89262 3.6963C4.89613 3.6942 4.89972 3.69204 4.90338 3.68984C4.97834 3.6448 5.08566 3.58032 5.21672 3.52816C5.28185 3.48052 5.33608 3.43079 5.37227 3.38656C5.38779 3.36758 5.39631 3.35429 5.40068 3.34657C5.40125 3.33657 5.40213 3.32658 5.4033 3.31663L5.5533 2.04163C5.55486 2.02834 5.55696 2.01511 5.55958 2.00199Z" fill="white"/>
<path fill-rule="evenodd" clip-rule="evenodd" d="M2.29987 8.50006C2.57601 8.50006 2.79987 8.72391 2.79987 9.00005C2.79987 9.10907 2.81323 9.20805 2.83155 9.32716C2.83303 9.33675 2.83459 9.34672 2.83619 9.35703C2.8527 9.46283 2.87487 9.60489 2.87487 9.75006C2.87487 9.90436 2.80363 10.05 2.68184 10.1447L1.36655 11.1677C1.34546 11.1964 1.31637 11.2535 1.30313 11.3374C1.2887 11.4288 1.30118 11.5013 1.3174 11.5411L2.50501 13.5452C2.51107 13.5554 2.51677 13.5658 2.52208 13.5765C2.54618 13.6246 2.63515 13.6974 2.78917 13.6358L2.79927 13.6318L3.99931 13.1819C4.00508 13.1797 4.0109 13.1777 4.01675 13.1757C4.33475 13.0697 4.70609 13.0552 5.07081 13.2734C5.20742 13.3263 5.31909 13.3934 5.39636 13.4399C5.40002 13.4421 5.40361 13.4442 5.40712 13.4463C5.50607 13.5057 5.55514 13.5331 5.60798 13.5507C5.65014 13.5648 5.69024 13.5844 5.72722 13.609C5.86746 13.7025 6.02158 13.828 6.14622 13.9803C6.26015 14.1196 6.38824 14.3292 6.39912 14.5894L6.54369 15.8183C6.58682 16.0017 6.71676 16.0751 6.79987 16.0751H9.12487C9.20798 16.0751 9.33792 16.0017 9.38104 15.8183L9.52829 14.5666C9.53078 14.5455 9.53463 14.5245 9.5398 14.5038C9.59264 14.2924 9.67815 14.1127 9.80318 13.9565C9.92422 13.8052 10.0658 13.6968 10.1975 13.609C10.2345 13.5844 10.2746 13.5648 10.3168 13.5507C10.5725 13.4655 10.671 13.4218 10.7213 13.3715C10.9125 13.1803 11.1592 13.119 11.3459 13.1047C11.5401 13.0897 11.7381 13.1191 11.908 13.1757C11.9138 13.1777 11.9197 13.1797 11.9254 13.1819L13.1254 13.6319C13.1418 13.638 13.1578 13.645 13.1735 13.6528C13.178 13.6551 13.2234 13.6693 13.298 13.6445C13.3726 13.6196 13.4004 13.581 13.4027 13.5765C13.408 13.5658 13.4137 13.5554 13.4197 13.5452L14.6197 11.5202C14.6289 11.5046 14.639 11.4895 14.6499 11.4751C14.6726 11.4448 14.6873 11.3971 14.6779 11.3374C14.6683 11.2771 14.6375 11.2283 14.5999 11.2001L14.5929 11.1948L13.2429 10.1447C13.0756 10.0146 13.0085 9.79306 13.0755 9.59195C13.1197 9.45942 13.1249 9.2484 13.1249 9.00005C13.1249 8.72391 13.3487 8.50006 13.6249 8.50006C13.901 8.50006 14.1249 8.72391 14.1249 9.00005C14.1249 9.00869 14.1249 9.01769 14.1249 9.027C14.125 9.15583 14.1252 9.34667 14.1013 9.54549L15.2039 10.4031C15.7024 10.7804 15.8434 11.521 15.4681 12.0501L14.2876 14.0422C14.1379 14.3269 13.8716 14.5074 13.6142 14.5932C13.3595 14.6781 13.0421 14.694 12.7538 14.5605L11.5847 14.1221C11.5312 14.1054 11.4701 14.0981 11.4226 14.1017C11.4143 14.1024 11.4074 14.1033 11.402 14.1042C11.1818 14.3101 10.8932 14.4129 10.7002 14.4771C10.6407 14.5203 10.607 14.5524 10.5841 14.5812C10.5618 14.609 10.5379 14.6481 10.5172 14.7192L10.3714 15.9585C10.3699 15.9718 10.3678 15.985 10.3652 15.9981C10.2542 16.5528 9.78935 17.0751 9.12487 17.0751H6.79987C6.13539 17.0751 5.67051 16.5528 5.55958 15.9981C5.55695 15.985 5.55486 15.9718 5.55329 15.9585L5.40329 14.6835C5.40212 14.6735 5.40125 14.6635 5.40068 14.6535C5.39631 14.6458 5.38779 14.6325 5.37226 14.6136C5.33607 14.5693 5.28185 14.5196 5.21672 14.472C5.08565 14.4198 4.97833 14.3553 4.90338 14.3103C4.89971 14.3081 4.89613 14.3059 4.89262 14.3038C4.79366 14.2444 4.7446 14.217 4.69175 14.1994C4.64959 14.1853 4.6095 14.1657 4.57252 14.1411C4.52762 14.1112 4.49578 14.1035 4.47085 14.1015C4.44317 14.0992 4.40209 14.1022 4.34058 14.1219L3.15493 14.5665C2.56699 14.7987 1.9172 14.5787 1.6369 14.0418L0.444723 12.03C0.438664 12.0197 0.432971 12.0093 0.427655 11.9987C0.295946 11.7352 0.274904 11.4377 0.315362 11.1815C0.355615 10.9265 0.466518 10.6513 0.671315 10.4465C0.685975 10.4318 0.701533 10.4181 0.717898 10.4054L1.85017 9.52473C1.8482 9.51185 1.84612 9.4983 1.84392 9.484L1.84318 9.47921C1.82401 9.35457 1.79987 9.19103 1.79987 9.00005C1.79987 8.72391 2.02373 8.50006 2.29987 8.50006Z" fill="white"/>
</svg>
