
<svg width="16" height="16" viewBox="0 0 16 16" fill="none" xmlns="http://www.w3.org/2000/svg">
<path d="M8 0.875C5.74901 0.875 3.88516 2.53002 3.55272 4.69072C1.60598 5.02282 0.125 6.72025 0.125 8.76373C0.125 10.7626 1.54186 12.43 3.42527 12.813C3.62822 12.8542 3.82621 12.7232 3.86748 12.5202C3.90875 12.3172 3.77768 12.1193 3.57473 12.078C2.03478 11.7648 0.875 10.3999 0.875 8.76373C0.875 7.00504 2.21473 5.56038 3.9259 5.39725C4.03248 5.38709 4.14058 5.38188 4.25 5.38188C5.01018 5.38188 5.71075 5.63327 6.27486 6.05787C6.44033 6.18242 6.67544 6.14925 6.79999 5.98377C6.92454 5.8183 6.89136 5.58319 6.72589 5.45865C6.05487 4.95358 5.2245 4.64856 4.32465 4.63254C4.67146 2.91638 6.18581 1.625 8 1.625C10.0704 1.625 11.75 3.30667 11.75 5.38257C11.75 5.49796 11.7448 5.61211 11.7347 5.72479C11.6649 6.49956 11.3606 7.20635 10.8927 7.77384C10.761 7.93364 10.7838 8.16999 10.9436 8.30173C11.1034 8.43347 11.3397 8.41072 11.4715 8.25091C11.9596 7.65873 12.2999 6.93901 12.4351 6.14913C13.9458 6.30463 15.125 7.58352 15.125 9.13947C15.125 10.6871 13.9578 11.9612 12.4587 12.1273C12.2529 12.1501 12.1045 12.3354 12.1273 12.5413C12.1501 12.7471 12.3354 12.8955 12.5413 12.8727C14.4172 12.665 15.875 11.0726 15.875 9.13947C15.875 7.19228 14.3955 5.59025 12.5 5.4018L12.5 5.38257C12.5 2.89376 10.486 0.875 8 0.875Z" fill="white"/>
<path d="M8.375 8.75C8.375 8.54289 8.20711 8.375 8 8.375C7.79289 8.375 7.625 8.54289 7.625 8.75V14.0805C7.51874 13.9746 7.40577 13.849 7.28991 13.7123C7.12953 13.523 6.97274 13.3233 6.82845 13.1395L6.79455 13.0963C6.64775 12.9095 6.50316 12.726 6.39391 12.6136C6.24955 12.4651 6.01214 12.4617 5.86363 12.6061C5.71512 12.7504 5.71174 12.9879 5.85609 13.1364C5.93117 13.2136 6.04746 13.3594 6.20474 13.5596L6.23977 13.6042C6.38265 13.7862 6.5478 13.9966 6.71771 14.1972C6.90032 14.4127 7.09924 14.6298 7.29417 14.7959C7.3918 14.879 7.49721 14.957 7.60684 15.0156C7.71349 15.0727 7.84898 15.125 8 15.125C8.15102 15.125 8.28651 15.0727 8.39316 15.0156C8.50279 14.957 8.6082 14.879 8.70583 14.7959C8.90076 14.6298 9.09969 14.4127 9.2823 14.1972C9.45222 13.9966 9.61736 13.7862 9.76024 13.6042L9.79527 13.5596C9.95255 13.3594 10.0688 13.2136 10.1439 13.1364C10.2883 12.9878 10.2849 12.7504 10.1364 12.6061C9.98785 12.4617 9.75043 12.4651 9.60609 12.6136C9.49685 12.726 9.35225 12.9095 9.20546 13.0963L9.17163 13.1394C9.02733 13.3232 8.87051 13.523 8.7101 13.7123C8.59424 13.849 8.48126 13.9746 8.375 14.0805V8.75Z" fill="white"/>
</svg>
