<svg width="18" height="18" viewBox="0 0 18 18" fill="none" xmlns="http://www.w3.org/2000/svg">
<path d="M13.1669 6.5C13.1649 4.03576 13.1277 2.75934 12.4103 1.88536C12.2718 1.71657 12.1171 1.56181 11.9483 1.4233C11.0263 0.666664 9.65658 0.666664 6.91699 0.666664C4.17743 0.666664 2.80764 0.666664 1.88568 1.4233C1.7169 1.56181 1.56214 1.71657 1.42363 1.88536C0.666992 2.80731 0.666992 4.1771 0.666992 6.91666C0.666992 9.65625 0.666992 11.026 1.42363 11.948C1.56213 12.1167 1.7169 12.2715 1.88568 12.41C2.75967 13.1273 4.03608 13.1646 6.50033 13.1666M6.50033 11.5C6.50033 9.143 6.50033 7.9645 7.23256 7.23223C7.96483 6.5 9.14333 6.5 11.5003 6.5H12.3337C14.6907 6.5 15.8692 6.5 16.6014 7.23223C17.3337 7.9645 17.3337 9.143 17.3337 11.5V12.3333C17.3337 14.6903 17.3337 15.8688 16.6014 16.6011C15.8692 17.3333 14.6907 17.3333 12.3337 17.3333H11.5003C9.14333 17.3333 7.96483 17.3333 7.23256 16.6011C6.50033 15.8688 6.50033 14.6903 6.50033 12.3333V11.5Z" stroke="#9299A3" stroke-linecap="round" stroke-linejoin="round"/>
</svg>
