<svg width="16" height="16" viewBox="0 0 16 16" fill="none" xmlns="http://www.w3.org/2000/svg">
<path fill-rule="evenodd" clip-rule="evenodd" d="M2.75 1.75C2.20114 1.75 1.75 2.20114 1.75 2.75V13.25C1.75 13.7989 2.20114 14.25 2.75 14.25H13.25C13.7989 14.25 14.25 13.7989 14.25 13.25V7.25C14.25 6.97386 14.4739 6.75 14.75 6.75C15.0261 6.75 15.25 6.97386 15.25 7.25V13.25C15.25 14.3511 14.3511 15.25 13.25 15.25H2.75C1.64886 15.25 0.75 14.3511 0.75 13.25V2.75C0.75 1.64886 1.64886 0.75 2.75 0.75H8.75C9.02614 0.75 9.25 0.973858 9.25 1.25C9.25 1.52614 9.02614 1.75 8.75 1.75H2.75ZM13.1215 1.82855C13.0168 1.72382 12.8834 1.72382 12.7786 1.82855L11.7822 2.825L13.1751 4.21789L14.1715 3.22145C14.2763 3.11671 14.2763 2.98329 14.1715 2.87855L13.1215 1.82855ZM12.4679 4.92496L11.075 3.53207L4.75 9.85711V11.25H6.14289L12.4679 4.92496ZM10.8016 2.39133L12.0715 1.12145C12.5668 0.626184 13.3334 0.626184 13.8286 1.12145L14.8786 2.17145C15.3739 2.66671 15.3739 3.43329 14.8786 3.92855L13.5286 5.27855C13.5269 5.28026 13.5252 5.28195 13.5235 5.28363L6.70355 12.1036C6.60979 12.1973 6.48261 12.25 6.35 12.25H4.25C3.97386 12.25 3.75 12.0261 3.75 11.75V9.65C3.75 9.51739 3.80268 9.39021 3.89645 9.29645L10.7964 2.39645C10.7982 2.39473 10.7999 2.39302 10.8016 2.39133Z" fill="#F0681C"/>
</svg>
