<svg width="18" height="18" viewBox="0 0 18 18" fill="none" xmlns="http://www.w3.org/2000/svg">
<path fill-rule="evenodd" clip-rule="evenodd" d="M9 0.9375C8.54645 0.9375 8.12884 1.05021 7.67158 1.23932C7.23006 1.42191 6.71724 1.69103 6.07868 2.02614L4.52804 2.83988C3.74431 3.25115 3.11712 3.58028 2.63285 3.90368C2.13115 4.23873 1.74474 4.59151 1.46334 5.06938C1.18289 5.54566 1.05672 6.06138 0.996216 6.67554C0.937489 7.27168 0.937494 8.00486 0.9375 8.92692V9.07306C0.937494 9.99513 0.937489 10.7283 0.996216 11.3245C1.05672 11.9386 1.18289 12.4543 1.46334 12.9306C1.74474 13.4085 2.13115 13.7613 2.63285 14.0963C3.1171 14.4197 3.74425 14.7488 4.52792 15.1601L6.07865 15.9738C6.71721 16.3089 7.23006 16.5781 7.67158 16.7607C8.12884 16.9498 8.54645 17.0625 9 17.0625C9.45355 17.0625 9.87116 16.9498 10.3284 16.7607C10.7699 16.5781 11.2828 16.309 11.9213 15.9739L13.4719 15.1601C14.2557 14.7489 14.8829 14.4197 15.3671 14.0963C15.8688 13.7613 16.2553 13.4085 16.5367 12.9306C16.8171 12.4543 16.9433 11.9386 17.0038 11.3245C17.0625 10.7283 17.0625 9.99514 17.0625 9.07309V8.92691C17.0625 8.00486 17.0625 7.27168 17.0038 6.67554C16.9433 6.06138 16.8171 5.54566 16.5367 5.06938C16.2553 4.59151 15.8688 4.23873 15.3671 3.90368C14.8829 3.58028 14.2557 3.25115 13.4719 2.83988L11.9213 2.02615C11.2828 1.69104 10.7699 1.42191 10.3284 1.23932C9.87116 1.05021 9.45355 0.9375 9 0.9375ZM6.5781 3.03456C7.24539 2.68438 7.713 2.4396 8.10152 2.27892C8.47968 2.12253 8.74534 2.0625 9 2.0625C9.25466 2.0625 9.52032 2.12253 9.89848 2.27892C10.287 2.4396 10.7546 2.68438 11.4219 3.03456L12.9219 3.82172C13.7392 4.25061 14.3134 4.55274 14.7424 4.83924C14.954 4.98059 15.1203 5.11183 15.2546 5.2438L9 8.3711L2.7454 5.24381C2.87967 5.11184 3.04599 4.98059 3.25764 4.83924C3.68665 4.55274 4.26083 4.25061 5.0781 3.82172L6.5781 3.03456ZM2.20326 6.23052C2.16538 6.39094 2.13675 6.57309 2.1158 6.78583C2.06313 7.32045 2.0625 7.99831 2.0625 8.95613V9.04387C2.0625 10.0017 2.06313 10.6796 2.1158 11.2142C2.16731 11.737 2.26516 12.0752 2.43276 12.3598C2.5994 12.6428 2.84045 12.8822 3.25764 13.1608C3.68665 13.4473 4.26083 13.7494 5.0781 14.1783L6.5781 14.9654C7.24539 15.3156 7.713 15.5604 8.10152 15.7211C8.2242 15.7718 8.33503 15.8124 8.4375 15.8441V9.34764L2.20326 6.23052ZM9.5625 15.8441C9.66496 15.8124 9.7758 15.7718 9.89848 15.7211C10.287 15.5604 10.7546 15.3156 11.4219 14.9654L12.9219 14.1783C13.7392 13.7494 14.3134 13.4473 14.7424 13.1608C15.1595 12.8822 15.4006 12.6428 15.5672 12.3598C15.7348 12.0752 15.8327 11.737 15.8842 11.2142C15.9369 10.6796 15.9375 10.0017 15.9375 9.04387V8.95613C15.9375 7.99831 15.9369 7.32045 15.8842 6.78583C15.8632 6.57309 15.8346 6.39093 15.7967 6.23052L9.5625 9.34764V15.8441Z" fill="white"/>
</svg>
