<svg width="14" height="14" viewBox="0 0 14 14" fill="none" xmlns="http://www.w3.org/2000/svg">
<path fill-rule="evenodd" clip-rule="evenodd" d="M9.04665 0.5C8.0694 0.5 7.1568 0.988406 6.61472 1.80153L4.92771 4.33205C4.64951 4.74935 4.18116 5 3.67963 5H1C0.723858 5 0.5 5.22386 0.5 5.5V11C0.5 12.3807 1.61929 13.5 3 13.5H10.6104C11.8021 13.5 12.8281 12.6589 13.0618 11.4903L13.7618 7.99029C14.0712 6.44331 12.888 5 11.3104 5H9.84023L10.3365 2.02258C10.4693 1.22555 9.85467 0.5 9.04665 0.5ZM7.44677 2.35623C7.80339 1.82131 8.40375 1.5 9.04665 1.5C9.23673 1.5 9.38132 1.67068 9.35007 1.85818L8.7568 5.4178C8.73264 5.56278 8.77349 5.71104 8.86849 5.82319C8.96349 5.93533 9.10302 6 9.25 6H11.3104C12.257 6 12.9669 6.86599 12.7813 7.79417L12.0813 11.2942C11.941 11.9953 11.3254 12.5 10.6104 12.5H4.5V5.86159C5.00805 5.68505 5.45318 5.34661 5.75976 4.88675L7.44677 2.35623ZM3.5 6H1.5V11C1.5 11.8284 2.17157 12.5 3 12.5H3.5V6Z" fill="white"/>
</svg>
