<svg width="18" height="18" viewBox="0 0 18 18" fill="none" xmlns="http://www.w3.org/2000/svg">
<path fill-rule="evenodd" clip-rule="evenodd" d="M8.11965 0.0416663H9.88035C11.4118 0.0416531 12.6248 0.0416426 13.5742 0.169279C14.5512 0.300635 15.342 0.5774 15.9656 1.20104C16.5893 1.82467 16.866 2.61546 16.9974 3.59248C17.125 4.54183 17.125 5.75486 17.125 7.28632V10.7137C17.125 12.2451 17.125 13.4582 16.9974 14.4075C16.866 15.3845 16.5893 16.1753 15.9656 16.799C15.342 17.4226 14.5512 17.6994 13.5742 17.8307C12.6248 17.9584 11.4118 17.9583 9.88034 17.9583H8.11966C6.58819 17.9583 5.37516 17.9584 4.42581 17.8307C3.4488 17.6994 2.65801 17.4226 2.03437 16.799C1.41073 16.1753 1.13397 15.3845 1.00261 14.4075C0.874977 13.4582 0.874987 12.2451 0.875 10.7137V7.28632C0.874987 5.75485 0.874977 4.54182 1.00261 3.59248C1.13397 2.61546 1.41073 1.82467 2.03437 1.20104C2.65801 0.5774 3.4488 0.300635 4.42581 0.169279C5.37516 0.0416426 6.58819 0.0416531 8.11965 0.0416663ZM4.59237 1.40813C3.75397 1.52085 3.27093 1.73224 2.91825 2.08492C2.56558 2.43759 2.35419 2.92063 2.24147 3.75904C2.12633 4.61543 2.125 5.74432 2.125 7.33333V10.6667C2.125 12.2557 2.12633 13.3846 2.24147 14.241C2.35419 15.0794 2.56558 15.5624 2.91825 15.9151C3.27093 16.2678 3.75397 16.4791 4.59237 16.5919C5.44876 16.707 6.57765 16.7083 8.16667 16.7083H9.83333C11.4224 16.7083 12.5512 16.707 13.4076 16.5919C14.246 16.4791 14.7291 16.2678 15.0817 15.9151C15.4344 15.5624 15.6458 15.0794 15.7585 14.241C15.8737 13.3846 15.875 12.2557 15.875 10.6667V7.33333C15.875 5.74432 15.8737 4.61543 15.7585 3.75904C15.6458 2.92063 15.4344 2.43759 15.0817 2.08492C14.7291 1.73224 14.246 1.52085 13.4076 1.40813C12.5512 1.29299 11.4224 1.29167 9.83333 1.29167H8.16667C6.57765 1.29167 5.44876 1.29299 4.59237 1.40813ZM5.04167 7.33333C5.04167 6.98815 5.32149 6.70833 5.66667 6.70833H12.3333C12.6785 6.70833 12.9583 6.98815 12.9583 7.33333C12.9583 7.67851 12.6785 7.95833 12.3333 7.95833H5.66667C5.32149 7.95833 5.04167 7.67851 5.04167 7.33333ZM5.04167 10.6667C5.04167 10.3215 5.32149 10.0417 5.66667 10.0417H9.83333C10.1785 10.0417 10.4583 10.3215 10.4583 10.6667C10.4583 11.0118 10.1785 11.2917 9.83333 11.2917H5.66667C5.32149 11.2917 5.04167 11.0118 5.04167 10.6667Z" fill="#1E1E2A"/>
</svg>
