
<svg width="18" height="20" viewBox="0 0 18 20" fill="none" xmlns="http://www.w3.org/2000/svg">
<path d="M1.61537 18C1.15512 18 0.770833 17.8458 0.4625 17.5375C0.154167 17.2292 0 16.8449 0 16.3846V1.61537C0 1.15512 0.154167 0.770833 0.4625 0.4625C0.770833 0.154167 1.15512 0 1.61537 0H8.82885C9.04423 0 9.25352 0.0435921 9.45673 0.130775C9.65993 0.217942 9.83397 0.333966 9.97885 0.47885L13.5212 4.02115C13.666 4.16603 13.7821 4.34008 13.8692 4.54328C13.9564 4.74648 14 4.95577 14 5.17115V16.3846C14 16.8449 13.8458 17.2292 13.5375 17.5375C13.2292 17.8458 12.8449 18 12.3846 18H1.61537ZM9 4.19233C9 4.42438 9.0766 4.617 9.2298 4.7702C9.383 4.9234 9.57563 5 9.80768 5H13L9 1V4.19233Z" fill="#6D727A"/>
</svg>
