<svg width="10" height="12" viewBox="0 0 10 12" fill="none" xmlns="http://www.w3.org/2000/svg">
<path d="M3.21745 6.19232C3.12287 6.19232 3.04375 6.16038 2.98009 6.09649C2.91641 6.0326 2.88457 5.95343 2.88457 5.85899V1.26796L1.04482 3.1077C0.986708 3.17009 0.914058 3.20129 0.826869 3.20129C0.739692 3.20129 0.659353 3.16675 0.585853 3.09767C0.512342 3.0223 0.475586 2.9421 0.475586 2.85705C0.475586 2.77201 0.512342 2.69274 0.585853 2.61924L2.82815 0.376922C2.88627 0.318799 2.94625 0.277988 3.00807 0.254488C3.06989 0.230988 3.13613 0.219238 3.20679 0.219238C3.27744 0.219238 3.34567 0.231183 3.41149 0.255072C3.4773 0.278961 3.53841 0.319577 3.59482 0.376922L5.8538 2.6359C5.91876 2.70086 5.95273 2.77522 5.95572 2.85897C5.95871 2.94274 5.92345 3.0223 5.84995 3.09767C5.77645 3.16675 5.69782 3.20193 5.61405 3.20321C5.5303 3.20449 5.45166 3.16838 5.37815 3.09487L3.55124 1.26796V5.8718C3.55124 5.96262 3.51925 6.03874 3.45527 6.10017C3.39129 6.1616 3.31202 6.19232 3.21745 6.19232ZM6.79312 11.768C6.72246 11.768 6.65423 11.756 6.58842 11.7321C6.52261 11.7082 6.4615 11.6676 6.40509 11.6103L4.1461 9.35129C4.08115 9.28633 4.04717 9.21197 4.04419 9.1282C4.0412 9.04445 4.07645 8.96489 4.14995 8.88952C4.22345 8.82044 4.30209 8.78526 4.38585 8.78397C4.46961 8.78269 4.54824 8.8188 4.62175 8.8923L6.44867 10.7192V6.11539C6.44867 6.02458 6.48066 5.94845 6.54464 5.88702C6.60861 5.82559 6.68789 5.79487 6.78245 5.79487C6.87703 5.79487 6.95616 5.82682 7.01984 5.8907C7.0835 5.95459 7.11534 6.03376 7.11534 6.1282V10.7192L8.95509 8.87949C9.0132 8.8171 9.08585 8.7859 9.17304 8.7859C9.26021 8.7859 9.34055 8.82044 9.41405 8.88952C9.48756 8.96489 9.52432 9.04509 9.52432 9.13014C9.52432 9.21518 9.48756 9.29445 9.41405 9.36795L7.17175 11.6103C7.11363 11.6684 7.05366 11.7092 6.99184 11.7327C6.93001 11.7562 6.86378 11.768 6.79312 11.768Z" fill="#6D727A"/>
</svg>
