<svg width="15" height="15" viewBox="0 0 15 15" fill="none" xmlns="http://www.w3.org/2000/svg">
<path d="M14.4352 6.42363L14.3549 6.1174H7.71256V8.88228H11.6854C11.4638 9.72597 10.9598 10.4724 10.2541 11.0022C9.54841 11.532 8.6818 11.8146 7.79291 11.8047C6.63303 11.7953 5.51859 11.3615 4.66817 10.5885C4.25012 10.1846 3.91745 9.70397 3.68919 9.17399C3.46092 8.644 3.34156 8.07509 3.33792 7.49984C3.35142 6.34442 3.81817 5.23842 4.64139 4.41122C5.4798 3.63281 6.59342 3.20316 7.74827 3.21251C8.73737 3.21997 9.6897 3.58086 10.4266 4.22747L12.3907 2.25005C11.0962 1.11816 9.42061 0.494946 7.68578 0.500126V0.500126C6.73143 0.494569 5.7853 0.673292 4.90143 1.02609C4.01756 1.37889 3.21324 1.89885 2.53442 2.55629C1.24318 3.87073 0.515181 5.62024 0.500235 7.44478C0.485288 9.26931 1.18453 11.0301 2.45407 12.3646C3.15744 13.0514 3.99342 13.5939 4.91316 13.9605C5.83289 14.3271 6.81795 14.5103 7.81077 14.4996C8.7111 14.5061 9.60341 14.3335 10.4336 13.992C11.2639 13.6506 12.0147 13.1476 12.6407 12.5134C13.8691 11.1896 14.5336 9.45507 14.4977 7.66608C14.5074 7.251 14.4865 6.83577 14.4352 6.42363Z"/>
</svg>
