<svg width="14" height="14" viewBox="0 0 14 14" fill="none" xmlns="http://www.w3.org/2000/svg">
<path fill-rule="evenodd" clip-rule="evenodd" d="M3.5 7C3.5 6.72386 3.72386 6.5 4 6.5H12.25C12.5261 6.5 12.75 6.72386 12.75 7C12.75 7.27614 12.5261 7.5 12.25 7.5H4C3.72386 7.5 3.5 7.27614 3.5 7Z" fill="white"/>
<path fill-rule="evenodd" clip-rule="evenodd" d="M13.3536 6.64645C13.5488 6.84171 13.5488 7.15829 13.3536 7.35355L9.60355 11.1036C9.40829 11.2988 9.09171 11.2988 8.89645 11.1036C8.70118 10.9083 8.70118 10.5917 8.89645 10.3964L12.6464 6.64645C12.8417 6.45118 13.1583 6.45118 13.3536 6.64645Z" fill="white"/>
<path fill-rule="evenodd" clip-rule="evenodd" d="M8.89645 2.89645C9.09171 2.70118 9.40829 2.70118 9.60355 2.89645L13.3536 6.64645C13.5488 6.84171 13.5488 7.15829 13.3536 7.35355C13.1583 7.54882 12.8417 7.54882 12.6464 7.35355L8.89645 3.60355C8.70118 3.40829 8.70118 3.09171 8.89645 2.89645Z" fill="white"/>
<path fill-rule="evenodd" clip-rule="evenodd" d="M4.5 1C4.5 0.723858 4.27614 0.5 4 0.5H2.5C1.39886 0.5 0.5 1.39886 0.5 2.5V11.5C0.5 12.6011 1.39886 13.5 2.5 13.5H4C4.27614 13.5 4.5 13.2761 4.5 13C4.5 12.7239 4.27614 12.5 4 12.5H2.5C1.95114 12.5 1.5 12.0489 1.5 11.5V2.5C1.5 1.95114 1.95114 1.5 2.5 1.5H4C4.27614 1.5 4.5 1.27614 4.5 1Z" fill="white"/>
</svg>
