<svg width="22" height="16" viewBox="0 0 22 16" fill="none" xmlns="http://www.w3.org/2000/svg">
<path d="M0.999674 15.0259C0.810786 15.0259 0.652452 14.9619 0.524674 14.834C0.396897 14.706 0.333008 14.5475 0.333008 14.3583C0.333008 14.1692 0.396897 14.0109 0.524674 13.8836C0.652452 13.7562 0.810786 13.6925 0.999674 13.6925H20.9997C21.1886 13.6925 21.3469 13.7565 21.4747 13.8845C21.6025 14.0124 21.6663 14.171 21.6663 14.3601C21.6663 14.5493 21.6025 14.7075 21.4747 14.8349C21.3469 14.9622 21.1886 15.0259 20.9997 15.0259H0.999674ZM0.999674 8.66691C0.810786 8.66691 0.652452 8.60293 0.524674 8.47498C0.396897 8.34704 0.333008 8.1885 0.333008 7.99934C0.333008 7.81019 0.396897 7.65194 0.524674 7.52461C0.652452 7.39725 0.810786 7.33358 0.999674 7.33358H20.9997C21.1886 7.33358 21.3469 7.39755 21.4747 7.52551C21.6025 7.65344 21.6663 7.81199 21.6663 8.00114C21.6663 8.1903 21.6025 8.34854 21.4747 8.47588C21.3469 8.60323 21.1886 8.66691 20.9997 8.66691H0.999674ZM0.999674 2.30794C0.810786 2.30794 0.652452 2.24397 0.524674 2.11601C0.396897 1.98805 0.333008 1.82951 0.333008 1.64037C0.333008 1.45122 0.396897 1.29296 0.524674 1.16561C0.652452 1.03828 0.810786 0.974609 0.999674 0.974609H20.9997C21.1886 0.974609 21.3469 1.03857 21.4747 1.16651C21.6025 1.29446 21.6663 1.45302 21.6663 1.64218C21.6663 1.83131 21.6025 1.98955 21.4747 2.11691C21.3469 2.24426 21.1886 2.30794 20.9997 2.30794H0.999674Z" fill="white"/>
</svg>
