<svg width="16" height="16" viewBox="0 0 16 16" fill="none" xmlns="http://www.w3.org/2000/svg">
<path fill-rule="evenodd" clip-rule="evenodd" d="M8 1.75C4.52614 1.75 1.75 4.52614 1.75 8C1.75 11.4739 4.52614 14.25 8 14.25C11.4739 14.25 14.25 11.4739 14.25 8C14.25 4.52614 11.4739 1.75 8 1.75ZM8 15.25C3.97386 15.25 0.75 12.0261 0.75 8C0.75 3.97386 3.97386 0.75 8 0.75C12.0261 0.75 15.25 3.97386 15.25 8C15.25 12.0261 12.0261 15.25 8 15.25Z" fill="#F0681C"/>
<path fill-rule="evenodd" clip-rule="evenodd" d="M9.50041 5.25C9.77655 5.25 10.0004 5.47386 10.0004 5.75V10.25C10.0004 10.5261 9.77655 10.75 9.50041 10.75C9.22427 10.75 9.00041 10.5261 9.00041 10.25V5.75C9.00041 5.47386 9.22427 5.25 9.50041 5.25Z" fill="#F0681C"/>
<path fill-rule="evenodd" clip-rule="evenodd" d="M6.49943 5.25C6.77558 5.25 6.99943 5.47386 6.99943 5.75V10.25C6.99943 10.5261 6.77558 10.75 6.49943 10.75C6.22329 10.75 5.99943 10.5261 5.99943 10.25V5.75C5.99943 5.47386 6.22329 5.25 6.49943 5.25Z" fill="#F0681C"/>
</svg>
