
<svg width="22" height="16" viewBox="0 0 22 16" fill="none" xmlns="http://www.w3.org/2000/svg">
<path d="M0.999674 15.0256C0.810786 15.0256 0.652452 14.9617 0.524674 14.8337C0.396897 14.7058 0.333008 14.5472 0.333008 14.3581C0.333008 14.1689 0.396897 14.0107 0.524674 13.8833C0.652452 13.756 0.810786 13.6923 0.999674 13.6923H20.9997C21.1886 13.6923 21.3469 13.7563 21.4747 13.8842C21.6025 14.0122 21.6663 14.1707 21.6663 14.3599C21.6663 14.549 21.6025 14.7073 21.4747 14.8346C21.3469 14.962 21.1886 15.0256 20.9997 15.0256H0.999674ZM0.999674 8.66666C0.810786 8.66666 0.652452 8.60269 0.524674 8.47473C0.396897 8.3468 0.333008 8.18825 0.333008 7.9991C0.333008 7.80994 0.396897 7.6517 0.524674 7.52436C0.652452 7.39701 0.810786 7.33333 0.999674 7.33333H20.9997C21.1886 7.33333 21.3469 7.39731 21.4747 7.52526C21.6025 7.6532 21.6663 7.81174 21.6663 8.0009C21.6663 8.19005 21.6025 8.3483 21.4747 8.47563C21.3469 8.60299 21.1886 8.66666 20.9997 8.66666H0.999674ZM0.999674 2.3077C0.810786 2.3077 0.652452 2.24372 0.524674 2.11577C0.396897 1.98781 0.333008 1.82926 0.333008 1.64013C0.333008 1.45098 0.396897 1.29272 0.524674 1.16536C0.652452 1.03803 0.810786 0.974365 0.999674 0.974365H20.9997C21.1886 0.974365 21.3469 1.03833 21.4747 1.16626C21.6025 1.29422 21.6663 1.45278 21.6663 1.64193C21.6663 1.83106 21.6025 1.98931 21.4747 2.11666C21.3469 2.24402 21.1886 2.3077 20.9997 2.3077H0.999674Z" fill="#9299A3"/>
</svg>
