<svg width="32" height="32" viewBox="0 0 32 32" fill="none" xmlns="http://www.w3.org/2000/svg">
<mask id="mask0_194_5975" style="mask-type:alpha" maskUnits="userSpaceOnUse" x="0" y="0" width="32" height="32">
<rect width="32" height="32" fill="#D9D9D9"/>
</mask>
<g mask="url(#mask0_194_5975)">
<path d="M5.99998 22.6667C5.81109 22.6667 5.65276 22.6027 5.52498 22.4747C5.3972 22.3468 5.33331 22.1883 5.33331 21.9991C5.33331 21.81 5.3972 21.6517 5.52498 21.5244C5.65276 21.397 5.81109 21.3333 5.99998 21.3333H19.8974C20.0863 21.3333 20.2446 21.3973 20.3724 21.5253C20.5002 21.6532 20.5641 21.8118 20.5641 22.0009C20.5641 22.1901 20.5002 22.3483 20.3724 22.4756C20.2446 22.603 20.0863 22.6667 19.8974 22.6667H5.99998ZM25.2512 20.9897L20.9897 16.7538C20.7743 16.5385 20.6666 16.2872 20.6666 16C20.6666 15.7128 20.7743 15.4616 20.9897 15.2462L25.2512 11.0359C25.376 10.9111 25.529 10.8444 25.7102 10.8359C25.8914 10.8274 26.053 10.894 26.1948 11.0359C26.3367 11.1778 26.4077 11.335 26.4077 11.5077C26.4077 11.6804 26.3367 11.8376 26.1948 11.9795L22.0974 16L26.1948 20.0462C26.3367 20.1653 26.4077 20.3168 26.4077 20.5009C26.4077 20.6849 26.3367 20.8479 26.1948 20.9897C26.0758 21.1145 25.9242 21.1769 25.7401 21.1769C25.5561 21.1769 25.3931 21.1145 25.2512 20.9897ZM5.99998 16.6667C5.81109 16.6667 5.65276 16.6027 5.52498 16.4747C5.3972 16.3468 5.33331 16.1883 5.33331 15.9991C5.33331 15.81 5.3972 15.6517 5.52498 15.5244C5.65276 15.397 5.81109 15.3333 5.99998 15.3333H16.1025C16.2914 15.3333 16.4498 15.3973 16.5775 15.5253C16.7053 15.6532 16.7692 15.8118 16.7692 16.0009C16.7692 16.1901 16.7053 16.3483 16.5775 16.4756C16.4498 16.603 16.2914 16.6667 16.1025 16.6667H5.99998ZM5.99998 10.6667C5.81109 10.6667 5.65276 10.6027 5.52498 10.4747C5.3972 10.3468 5.33331 10.1882 5.33331 9.99911C5.33331 9.80996 5.3972 9.65171 5.52498 9.52438C5.65276 9.39702 5.81109 9.33334 5.99998 9.33334H19.8974C20.0863 9.33334 20.2446 9.39732 20.3724 9.52528C20.5002 9.65321 20.5641 9.81175 20.5641 10.0009C20.5641 10.19 20.5002 10.3483 20.3724 10.4756C20.2446 10.603 20.0863 10.6667 19.8974 10.6667H5.99998Z" fill="#9299A3"/>
</g>
</svg>
