<svg width="16" height="16" viewBox="0 0 16 16" fill="current" stroke="current" xmlns="http://www.w3.org/2000/svg">
<path fill-rule="evenodd" clip-rule="evenodd" d="M10.2736 15.2222C9.18779 15.2222 8.17379 14.6795 7.57148 13.7761L5.69702 10.9644C5.38791 10.5007 4.86752 10.2222 4.31027 10.2222H1.3329C1.02607 10.2222 0.777344 9.97349 0.777344 9.66667V3.55556C0.777344 2.02143 2.021 0.777779 3.55512 0.777779H12.0111C13.3352 0.777779 14.4753 1.71239 14.7349 3.01079L15.5127 6.89968C15.8565 8.61854 14.5418 10.2222 12.7889 10.2222H11.1554L11.7068 13.5305C11.8544 14.4161 11.1714 15.2222 10.2736 15.2222ZM8.49598 13.1597C8.89222 13.7541 9.55929 14.1111 10.2736 14.1111C10.4848 14.1111 10.6455 13.9215 10.6108 13.7131L9.95157 9.758C9.92472 9.59691 9.97011 9.43218 10.0757 9.30757C10.1812 9.18296 10.3363 9.11111 10.4996 9.11111H12.7889C13.8406 9.11111 14.6295 8.1489 14.4232 7.11758L13.6454 3.2287C13.4896 2.44966 12.8056 1.88889 12.0111 1.88889H5.22179V9.2649C5.78629 9.46105 6.28088 9.8371 6.62152 10.3481L8.49598 13.1597ZM4.11068 9.11111V1.88889H3.55512C2.63465 1.88889 1.88845 2.63508 1.88845 3.55556V9.11111H4.11068Z" fill="current"/>
</svg>
