<svg width="16" height="16" viewBox="0 0 16 16" fill="current" stroke="current" xmlns="http://www.w3.org/2000/svg">
<path fill-rule="evenodd" clip-rule="evenodd" d="M10.2736 0.777779C9.18779 0.777779 8.17379 1.32045 7.57148 2.22392L5.69702 5.03561C5.38791 5.49928 4.86752 5.77778 4.31027 5.77778H1.3329C1.02607 5.77778 0.777344 6.02651 0.777344 6.33333V12.4444C0.777344 13.9786 2.021 15.2222 3.55512 15.2222H12.0111C13.3352 15.2222 14.4753 14.2876 14.7349 12.9892L15.5127 9.10032C15.8565 7.38146 14.5418 5.77778 12.7889 5.77778H11.1554L11.7068 2.46953C11.8544 1.58394 11.1714 0.777779 10.2736 0.777779ZM8.49598 2.84026C8.89222 2.2459 9.55929 1.88889 10.2736 1.88889C10.4848 1.88889 10.6455 2.07853 10.6108 2.28686L9.95157 6.242C9.92472 6.40309 9.97011 6.56782 10.0757 6.69243C10.1812 6.81704 10.3363 6.88889 10.4996 6.88889H12.7889C13.8406 6.88889 14.6295 7.8511 14.4232 8.88242L13.6454 12.7713C13.4896 13.5503 12.8056 14.1111 12.0111 14.1111H5.22179V6.7351C5.78629 6.53895 6.28088 6.16291 6.62152 5.65195L8.49598 2.84026ZM4.11068 6.88889H1.88845V12.4444C1.88845 13.3649 2.63465 14.1111 3.55512 14.1111H4.11068V6.88889Z" fill="current"/>
</svg>
