<svg width="14" height="16" viewBox="0 0 14 16" fill="none" xmlns="http://www.w3.org/2000/svg">
<path fill-rule="evenodd" clip-rule="evenodd" d="M4.30279 1.02639C4.38748 0.857001 4.56061 0.75 4.75 0.75H9.25C9.43939 0.75 9.61252 0.857001 9.69721 1.02639L11.059 3.75H13C13.2761 3.75 13.5 3.97386 13.5 4.25C13.5 4.52614 13.2761 4.75 13 4.75H12V12.75C12 14.1307 10.8807 15.25 9.5 15.25H4.5C3.11929 15.25 2 14.1307 2 12.75V4.75H1C0.723858 4.75 0.5 4.52614 0.5 4.25C0.5 3.97386 0.723858 3.75 1 3.75H2.94098L4.30279 1.02639ZM3.23917 4.75C3.24614 4.75015 3.25311 4.75015 3.26006 4.75H10.7399C10.7469 4.75015 10.7539 4.75015 10.7608 4.75H11V12.75C11 13.5784 10.3284 14.25 9.5 14.25H4.5C3.67157 14.25 3 13.5784 3 12.75V4.75H3.23917ZM9.94098 3.75H4.05902L5.05902 1.75H8.94098L9.94098 3.75ZM5.5 6.75C5.77614 6.75 6 6.97386 6 7.25V11.75C6 12.0261 5.77614 12.25 5.5 12.25C5.22386 12.25 5 12.0261 5 11.75V7.25C5 6.97386 5.22386 6.75 5.5 6.75ZM8.5 6.75C8.77614 6.75 9 6.97386 9 7.25V11.75C9 12.0261 8.77614 12.25 8.5 12.25C8.22386 12.25 8 12.0261 8 11.75V7.25C8 6.97386 8.22386 6.75 8.5 6.75Z" fill="#9299A3"/>
</svg>
